<svg fill="#0056d6" xmlns="http://www.w3.org/2000/svg" width="64px" height="64px" viewBox="-95 -95 290.00 290.00" enable-background="new 0 0 100 100" xml:space="preserve" stroke="#0056d6" stroke-width="0.001"><g id="SVGRepo_bgCarrier" stroke-width="0"></g><g id="SVGRepo_tracerCarrier" stroke-linecap="round" stroke-linejoin="round"></g><g id="SVGRepo_iconCarrier"> <g> <path d="M31.9,38.8h-10c-1,0-1.9,0.9-1.9,1.9v31.9c0,2.8,2.2,5,5,5h6.9c1,0,1.9-0.9,1.9-1.9v-35 C33.8,39.6,32.9,38.8,31.9,38.8z M78.1,38.8H40.6c-1,0-1.9,0.9-1.9,1.9v35c0,1,0.9,1.9,1.9,1.9H75c2.8,0,5-2.2,5-5V40.6 C80,39.6,79.1,38.8,78.1,38.8z M75,22.5H25c-2.8,0-5,2.2-5,5v4.4c0,1,0.9,1.9,1.9,1.9h56.2c1,0,1.9-0.9,1.9-1.9v-4.4 C80,24.8,77.8,22.5,75,22.5z"></path> </g> </g></svg>